General
Complete name                    : 24_ Redemption(2008).mkv
Format                           : Matroska
File size                        : 1.38 GiB
Duration                         : 1h 23mn
Overall bit rate                 : 2 361 Kbps


Video
ID                               : 1
Format                           : AVC
Duration                         : 1h 23mn
Bit rate                         : 1 866 Kbps
Width                            : 720 pixels
Height                           : 576 pixels
Display aspect ratio             : 16:9
Frame rate                       : 25.000 fps
Resolution                       : 8 bits
Colorimetry                      : 4:2:0
Scan type                        : Progressive
Bits/(Pixel*Frame)               : 0.180
Stream size                      : 1.09 GiB (79%)
Writing library                  : x264 core 79


Audio
ID                               : 2
Format                           : AC-3
Format/Info                      : Audio Coding 3
Codec ID                         : A_AC3
Duration                         : 1h 23mn
Bit rate mode                    : Constant
Bit rate                         : 448 Kbps
Channel(s)                       : 6 channels
Channel positions                : Front: L C R, Surround: L R, LFE
Sampling rate                    : 48.0 KHz
Stream size                      : 267 MiB (19%)
Language                         : English

Text #1
Language                         : Danish

Text #2
Language                         : English

Text #3
Language                         : Finnish

Text #4
Language                         : Greek

Text #5
Language                         : Norwegian

Text #6
Language                         : Swedish

